<svg xmlns="http://www.w3.org/2000/svg" width="14.385" height="11.73" viewBox="0 0 14.385 11.73">
  <g id="Group_12607" data-name="Group 12607" transform="translate(0.001)">
    <g id="Group_12474" data-name="Group 12474" transform="translate(0 0)">
      <path id="Path_53041" data-name="Path 53041" d="M-346.911-56.965l-.54-1.3a.347.347,0,0,0-.453-.187.347.347,0,0,0-.187.453l.22.53-1.171-.485v-5.165a.347.347,0,0,0-.228-.326l-4.46-1.625v-1.135l.406.406a.346.346,0,0,0,.245.1.346.346,0,0,0,.245-.1.347.347,0,0,0,0-.49l-1-1a.346.346,0,0,0-.49,0l-1,1a.347.347,0,0,0,0,.49.347.347,0,0,0,.49,0l.406-.406v1.135l-4.46,1.625a.346.346,0,0,0-.228.326v5.165l-1.171.485.22-.53a.346.346,0,0,0-.187-.453.346.346,0,0,0-.453.187l-.54,1.3a.346.346,0,0,0,0,.265.346.346,0,0,0,.188.188l1.3.54a.345.345,0,0,0,.133.027.347.347,0,0,0,.32-.214.346.346,0,0,0-.187-.453l-.53-.22,1.246-.516,4.576,1.667a.466.466,0,0,0,.119.021.457.457,0,0,0,.118-.021l4.575-1.667,1.246.516-.53.22a.347.347,0,0,0-.187.453.347.347,0,0,0,.32.214.345.345,0,0,0,.133-.027l1.3-.54a.346.346,0,0,0,.188-.188.346.346,0,0,0,0-.265Zm-7.512.464-3.4-1.238,3.4-1.379Zm0-3.364-3.995,1.612v-4.334l3.995,1.612Zm0-1.857-3.4-1.373,3.4-1.239Zm.693-2.612,3.4,1.239-3.4,1.373Zm0,7.833v-2.617l3.4,1.379Zm3.995-1.752-3.995-1.612v-1.11l3.995-1.612Zm0,0" transform="translate(361.27 67.391)" fill="#fff"/>
    </g>
  </g>
</svg>
