<svg xmlns="http://www.w3.org/2000/svg" width="12.707" height="10.319" viewBox="0 0 12.707 10.319">
  <path id="diamond" d="M159.16,123.616l5.989-6.878a.358.358,0,0,0,.02-.462l-1.848-2.7,0,0h0v0a.35.35,0,0,0-.023-.03l-.008-.008-.02-.02-.01-.009-.021-.016-.012-.009,0,0-.021-.012-.009-.005-.037-.017-.005,0-.033-.01-.011,0-.029-.005h-.012l-.032,0H154.75l-.032,0h-.011l-.03.006-.01,0-.033.01-.005,0-.037.017-.009,0-.021.012,0,0-.012.009-.021.016-.01.009-.021.021-.007.008a.356.356,0,0,0-.024.031h0l0,0-1.859,2.713,0,0-.012.02c0,.008-.009.016-.013.025l0,.005s0,.01-.006.015-.007.018-.01.027,0,.015-.006.022,0,.018-.006.026,0,.015,0,.023,0,.017,0,.026,0,.015,0,.023,0,.018,0,.026,0,.015,0,.023,0,.017.006.026,0,.015.006.023.006.016.009.024l.01.022,0,.01.008.014.013.02.017.022.009.012,6,6.886h0l.005.006,0,0,.016.016,0,0,.007.006.017.014h0l0,0,0,0,.026.017.005,0,.024.012,0,0,.006,0,.022.009,0,0h0l.018.005.008,0,.007,0h.005l.008,0h.008l.015,0h.085l.015,0,.008,0,.008,0h.005l.007,0,.008,0,.018-.005h0l.005,0,.022-.009.006,0,0,0,.024-.012.005,0,.026-.017,0,0,0,0h0l.017-.014.007-.006,0,0,.016-.016,0,0,.005-.006Zm-.27-9.291,1.577,1.812h-3.155Zm.936,7.435,1.685-4.907H164.1Zm-.936.517-1.863-5.424h3.725Zm-.936-.517-4.272-4.907h2.587Zm6.251-5.624h-2.289l1.115-1.712Zm-2.992-.235-1.536-1.764h2.685Zm-4.647,0-1.149-1.764H158.1Zm-1.818-1.477,1.115,1.712h-2.289Z" transform="translate(-152.537 -113.42)" fill="#fff"/>
</svg>
