<svg xmlns="http://www.w3.org/2000/svg" width="10.402" height="12.142" viewBox="0 0 10.402 12.142">
  <g id="Group_12855" data-name="Group 12855" transform="translate(-87.487 -118.123)">
    <g id="Group_12606" data-name="Group 12606" transform="translate(87.488 118.123)">
      <path id="Path_53045" data-name="Path 53045" d="M45.286,492.722a4.3,4.3,0,0,0,1.713-1.6.362.362,0,0,0-.311-.546h-9.68a.361.361,0,0,0-.311.546,4.3,4.3,0,0,0,1.713,1.6,5.123,5.123,0,0,0,2.061.571v.929h-1.71a1.268,1.268,0,0,0-1.257,1.113l-.731,5.965a1.267,1.267,0,0,0,1.257,1.421h7.635a1.267,1.267,0,0,0,1.257-1.421l-.731-5.965a1.268,1.268,0,0,0-1.257-1.113h-1.71v-.929A5.126,5.126,0,0,0,45.286,492.722Zm.188,2.7.731,5.966a.544.544,0,0,1-.539.609H38.03a.543.543,0,0,1-.539-.609l.73-5.966a.544.544,0,0,1,.54-.477h6.174A.543.543,0,0,1,45.474,495.422Zm-2.972-1.2H41.193V493.3H42.5Zm3.47-2.919a4.159,4.159,0,0,1-3.081,1.278H40.805a4.161,4.161,0,0,1-3.082-1.278Z" transform="translate(-36.646 -490.579)" fill="#fff"/>
      <path id="Path_53046" data-name="Path 53046" d="M40.593,502.237a2.964,2.964,0,1,0,2.964-2.964A2.968,2.968,0,0,0,40.593,502.237Zm2.964,2.241a2.241,2.241,0,1,1,2.241-2.241A2.243,2.243,0,0,1,43.557,504.478Z" transform="translate(-38.356 -494.345)" fill="#fff"/>
      <path id="Path_53047" data-name="Path 53047" d="M44.625,503.97l-.871.871a.362.362,0,0,0,.512.511l.871-.871a.362.362,0,1,0-.511-.512Z" transform="translate(-39.679 -496.334)" fill="#fff"/>
    </g>
  </g>
</svg>
