<svg xmlns="http://www.w3.org/2000/svg" width="12" height="12" viewBox="0 0 12 12">
  <g id="Group_12433" data-name="Group 12433" transform="translate(0.001 12) rotate(-90)">
    <path id="Path_48080" data-name="Path 48080" d="M5.046,2.514A2.523,2.523,0,1,1,2.523,0,2.523,2.523,0,0,1,5.046,2.514Zm0,0" transform="translate(3.52 3.534)" fill="#fff"/>
    <path id="Path_48081" data-name="Path 48081" d="M11.727,5.73h-.36a5.337,5.337,0,0,0-5-5V.371a.322.322,0,1,0-.637,0v.36a5.337,5.337,0,0,0-5,5H.371a.322.322,0,1,0,0,.637h.36a5.337,5.337,0,0,0,5,5v.36a.322.322,0,0,0,.637,0v-.36a5.337,5.337,0,0,0,5-5h.36a.322.322,0,0,0,0-.637ZM6.367,10.408V9.853a.322.322,0,1,0-.637,0v.555a4.385,4.385,0,0,1-4.04-4.04h.555a.322.322,0,0,0,0-.637H1.69a4.377,4.377,0,0,1,4.04-4.04v.555a.322.322,0,1,0,.637,0V1.691A4.377,4.377,0,0,1,10.4,5.731H9.853a.322.322,0,1,0,0,.637H10.4a4.377,4.377,0,0,1-4.033,4.04Zm0,0" fill="#fff"/>
  </g>
</svg>
